<svg data-name="Layer 1" viewBox="0 0 383.96 492.02" xmlns="http://www.w3.org/2000/svg"><path d="m727 327-140.33-81.86C567.86 233.05 543.93 233 526 245c-10 6.7-15.86 16.12-19.27 25a72.78 72.78 0 0 0-4.73 25" transform="translate(-489.97 -130.08)" fill="none" stroke="#ffffff" stroke-miterlimit="10" stroke-width="20px" class="stroke-000000"></path><path d="M570.5 244.52c0-2-.09-30.9 24-47 17.93-12 41.86-12 60.67.14l140.33 81.86" transform="translate(-489.97 -130.08)" fill="none" stroke="#ffffff" stroke-miterlimit="10" stroke-width="20px" class="stroke-000000"></path><path d="M638.93 196c0-2-.09-30.9 24-47 17.93-12 41.86-11.95 60.67.14L863.93 231" transform="translate(-489.97 -130.08)" fill="none" stroke="#ffffff" stroke-miterlimit="10" stroke-width="20px" class="stroke-000000"></path><path d="M235.03 449.92a12 12 0 0 1-12-12v-240a12 12 0 0 1 24 0v240a12 12 0 0 1-12 12Z" fill="#ffffff" class="fill-000000"></path><rect height="264" rx="12" ry="12" width="24" x="359.96" y="89.92" fill="#ffffff" class="fill-000000"></rect><rect height="264" rx="12" ry="12" width="24" x="293.53" y="139.92" fill="#ffffff" class="fill-000000"></rect><path d="M2.03 151.44q49.9 25.56 101.78 54.48 34.47 19.25 67.22 38.6-1.66 56.67-2 115.8-.3 62.71 1 122.73a19.25 19.25 0 0 1-22.73 7.87L.03 411.75Z" fill="#ffffff" class="fill-000000"></path></svg>