<svg viewBox="0 0 512 512" xml:space="preserve" xmlns="http://www.w3.org/2000/svg" enable-background="new 0 0 512 512"><path d="M59.65 273.7c0 44.09 35.87 79.96 79.96 79.96s79.96-35.87 79.96-79.96c0-44.09-35.87-79.96-79.96-79.96s-79.96 35.87-79.96 79.96zm79.96-47.96c26.44 0 47.96 21.51 47.96 47.96s-21.51 47.96-47.96 47.96c-26.44 0-47.96-21.51-47.96-47.96s21.52-47.96 47.96-47.96zM27.5 469.14c0 8.84 7.16 16 16 16h192.22c8.84 0 16-7.16 16-16 0-55.1-44.83-99.93-99.93-99.93h-24.37c-55.09.01-99.92 44.83-99.92 99.93zm99.93-67.92h24.37c31.95 0 58.81 22.17 66.02 51.93H61.4c7.22-29.77 34.08-51.93 66.03-51.93zM452.35 106.82c0-44.09-35.87-79.96-79.96-79.96s-79.96 35.87-79.96 79.96 35.87 79.96 79.96 79.96 79.96-35.87 79.96-79.96zm-127.92 0c0-26.44 21.51-47.96 47.96-47.96 26.44 0 47.96 21.51 47.96 47.96s-21.51 47.96-47.96 47.96c-26.45-.01-47.96-21.52-47.96-47.96zM384.57 202.34H360.2c-55.1 0-99.93 44.83-99.93 99.93 0 8.84 7.16 16 16 16H468.5c8.84 0 16-7.16 16-16 0-55.11-44.83-99.93-99.93-99.93zm-90.39 83.92c7.21-29.76 34.08-51.93 66.02-51.93h24.37c31.95 0 58.81 22.17 66.02 51.93H294.18zM279.64 453.14c-8.84 0-16 7.16-16 16s7.16 16 16 16h92.75c8.84 0 16-7.16 16-16v-52.96l2.13 2.13c3.12 3.12 7.22 4.69 11.31 4.69 4.09 0 8.19-1.56 11.31-4.69 6.25-6.25 6.25-16.38 0-22.63l-29.43-29.43c-.38-.38-.77-.73-1.18-1.07-.18-.14-.36-.27-.54-.41-.24-.18-.47-.36-.71-.53-.22-.15-.45-.28-.68-.41-.22-.13-.44-.27-.66-.39-.23-.12-.47-.23-.71-.34-.24-.11-.47-.23-.71-.33-.23-.1-.47-.17-.7-.26-.26-.09-.51-.19-.78-.27-.23-.07-.47-.12-.7-.18-.27-.07-.54-.14-.82-.2-.26-.05-.53-.08-.8-.12-.25-.04-.5-.08-.75-.11-.48-.05-.95-.07-1.43-.07-.05 0-.1-.01-.14-.01-.06 0-.11.01-.17.01-.47 0-.94.03-1.41.07-.26.03-.51.07-.77.11-.26.04-.52.07-.78.12-.28.06-.56.13-.84.2-.23.06-.46.11-.68.18-.27.08-.53.18-.8.28-.23.08-.46.16-.68.25-.25.1-.48.22-.73.34-.23.11-.47.21-.7.33-.23.12-.45.26-.67.4-.22.13-.45.26-.67.41-.25.16-.48.35-.71.52-.18.14-.37.26-.55.41-.41.34-.8.69-1.17 1.06l-29.44 29.44c-6.25 6.25-6.25 16.38 0 22.63 3.12 3.12 7.22 4.69 11.31 4.69 4.09 0 8.19-1.56 11.31-4.69l2.13-2.13v36.96h-76.74zM232.41 60.5c8.84 0 16-7.16 16-16s-7.16-16-16-16h-92.75c-8.84 0-16 7.16-16 16v52.96l-2.13-2.13c-6.25-6.25-16.38-6.25-22.63 0s-6.25 16.38 0 22.63l29.43 29.43c.38.38.77.73 1.18 1.07.18.15.36.27.55.41.24.18.47.36.71.52.22.15.46.28.68.42.22.13.43.27.66.39.24.13.48.23.72.35.23.11.46.23.7.32.24.1.48.18.71.26.25.09.5.19.76.27.24.07.48.13.72.19.26.07.53.14.8.19.28.06.56.09.84.13.24.03.47.08.71.1.52.05 1.05.08 1.58.08s1.05-.03 1.58-.08c.24-.02.47-.07.71-.1.28-.04.56-.07.84-.13.27-.05.53-.13.79-.19.24-.06.48-.11.72-.19.26-.08.51-.18.76-.27.24-.09.48-.16.71-.26.24-.1.47-.21.7-.32.24-.11.48-.22.72-.35.22-.12.44-.26.66-.39.23-.14.46-.27.69-.42.24-.16.47-.34.71-.52.18-.14.37-.26.55-.41.41-.34.81-.69 1.18-1.07l29.43-29.43c6.25-6.25 6.25-16.38 0-22.63s-16.38-6.25-22.63 0l-2.13 2.13V60.5h76.77z" fill="#ffffff" class="fill-333333"></path></svg>