<svg data-name="Layer 1" viewBox="0 0 512 512" xmlns="http://www.w3.org/2000/svg"><path d="M70.46 265.48h371.08a5.1 5.1 0 0 0 5.1-5.1V31.28a5.1 5.1 0 0 0-5.1-5.1H70.46a5.1 5.1 0 0 0-5.1 5.1v229.1a5.1 5.1 0 0 0 5.1 5.1Zm119.24-10.2a66.34 66.34 0 0 1 132.6 0ZM75.56 36.38h360.88v218.9H332.52A76.72 76.72 0 0 0 279 184.71a43.31 43.31 0 1 0-46.06 0 76.72 76.72 0 0 0-53.49 70.57H75.56ZM256 181.17a33.11 33.11 0 1 1 33.11-33.11A33.15 33.15 0 0 1 256 181.17ZM424.08 406.71a43.84 43.84 0 1 0-46.37 0 77.92 77.92 0 0 0-49.26 46.36 78 78 0 0 0-49.26-46.36 43.83 43.83 0 1 0-46.38 0 78 78 0 0 0-49.26 46.36 77.92 77.92 0 0 0-49.26-46.36 43.84 43.84 0 1 0-46.37 0 77.68 77.68 0 0 0-54.36 74 5.1 5.1 0 0 0 10.2 0 67.35 67.35 0 1 1 134.69 0 5.1 5.1 0 1 0 10.2 0 67.35 67.35 0 0 1 134.7 0 5.1 5.1 0 0 0 10.2 0 67.35 67.35 0 1 1 134.69 0 5.1 5.1 0 0 0 10.2 0 77.68 77.68 0 0 0-54.36-74ZM77.47 369.53a33.64 33.64 0 1 1 33.64 33.64 33.67 33.67 0 0 1-33.64-33.64Zm144.9 0A33.63 33.63 0 1 1 256 403.17a33.67 33.67 0 0 1-33.63-33.64Zm144.89 0a33.64 33.64 0 1 1 33.64 33.64 33.67 33.67 0 0 1-33.64-33.64Z" fill="#ffffff" class="fill-000000"></path></svg>