<svg viewBox="0 0 64 64" xmlns="http://www.w3.org/2000/svg"><path d="m52 10 3 3M55 10l-3 3" stroke-linecap="round" fill="none" stroke="#ffffff" stroke-linejoin="round" stroke-width="2px" class="stroke-000000"></path><circle cx="59.5" cy="36.5" r="1.069" fill="#ffffff" class="fill-000000"></circle><path d="M43 39.889V59H8V8h28l7 6v20.116M24 17h10M13 38h20M13 41h13" stroke-linecap="round" fill="none" stroke="#ffffff" stroke-linejoin="round" stroke-width="2px" class="stroke-000000"></path><path d="M13 54s11-4 8-6-6 3-2 6 5-2 5-2l1 2 3-1M19 17h-6v3h6v3h-6M16 15v10M24 20h6M34 20h4M13 31h16v4H13z" stroke-linecap="round" fill="none" stroke="#ffffff" stroke-linejoin="round" stroke-width="2px" class="stroke-000000"></path><path d="M43 14h-7V8" fill="none" stroke="#ffffff" stroke-linejoin="round" stroke-width="2px" class="stroke-000000"></path><path d="M57.728 19.444 32.979 44.192l-2.121 4.95 4.95-2.121 24.748-24.749-2.828-2.828z" stroke-linecap="round" fill="none" stroke="#ffffff" stroke-linejoin="round" stroke-width="2px" class="stroke-000000"></path><circle cx="54" cy="44" r="2" stroke-linecap="round" fill="none" stroke="#ffffff" stroke-linejoin="round" stroke-width="2px" class="stroke-000000"></circle></svg>