<svg viewBox="0 0 846.66 846.66" xml:space="preserve" xmlns="http://www.w3.org/2000/svg" shape-rendering="geometricPrecision" text-rendering="geometricPrecision" image-rendering="optimizeQuality" fill-rule="evenodd" clip-rule="evenodd"><path d="M462.45 683.13H48.84c-11.39 0-20.64-9.24-20.64-20.64V31.54c0-11.4 9.25-20.64 20.64-20.64h748.98c11.4 0 20.64 9.24 20.64 20.64v630.95c0 11.4-9.24 20.64-20.64 20.64H599.34v131.99c0 11.4-9.24 20.64-20.64 20.64h-95.61c-11.4 0-20.64-9.24-20.64-20.64V683.13zm141.41-554.21V52.18H69.48v76.74h534.38zm41.28-76.74v76.74h132.04V52.18H645.14zM137.48 523.02c-27.15 0-27.15-41.28 0-41.28h149.39c27.15 0 27.15 41.28 0 41.28H137.48zm0-111.55c-27.15 0-27.15-41.28 0-41.28h149.39c27.15 0 27.15 41.28 0 41.28H137.48zm0-111.55c-27.15 0-27.15-41.28 0-41.28h149.39c27.15 0 27.15 41.28 0 41.28H137.48zm393.41-77.14c97.76 0 177.02 79.25 177.02 177.01 0 71.51-42.95 135.76-108.57 163.29v78.77h177.84V170.2H69.48v471.65h392.97v-78.77c-65.62-27.54-108.57-91.77-108.57-163.29 0-97.76 79.25-177.01 177.01-177.01zm27.17 351.95c-8.86 1.37-17.93 2.08-27.17 2.08-9.24 0-18.31-.71-27.16-2.08v219.75h54.33V574.73zm-27.17-310.67c-74.96 0-135.73 60.77-135.73 135.73 0 74.97 60.77 135.74 135.73 135.74 74.97 0 135.74-60.78 135.74-135.74 0-74.96-60.77-135.73-135.74-135.73z" fill="#ffffff" fill-rule="nonzero" class="fill-000000"></path></svg>