<svg data-name="Layer 1" viewBox="0 0 200 200" xmlns="http://www.w3.org/2000/svg"><path d="M100.68 65a35 35 0 1 0 35 35 34.78 34.78 0 0 0-35-35Zm0 50a15 15 0 1 1 15-15 14.73 14.73 0 0 1-15 15Z" fill="#ffffff" class="fill-000000"></path><path d="M169.68 108a6.59 6.59 0 0 1 0-11.5 26.75 26.75 0 0 0 9.5-36.5l-3.5-6c-7.5-12.5-23.5-17-36-9.5-4 2.5-9-.5-9-5.5v-1.5a27.42 27.42 0 0 0-27.5-27.5h-5a27.74 27.74 0 0 0-27.5 27.5v1c0 5.5-6 8.5-10.5 6a27.05 27.05 0 0 0-37 10l-3 5.5c-7.5 12.5-3 29 9.5 36.5a6.59 6.59 0 0 1 0 11.5 26.75 26.75 0 0 0-9.5 36.5l3.5 5.5a27.05 27.05 0 0 0 37 10l1.5-1a5.89 5.89 0 0 1 9 5 25.82 25.82 0 0 0 26 26h8.5a25.61 25.61 0 0 0 25.5-25.5c0-4.5 4.5-7 8.5-5l1 .5c12.5 7.5 28.5 3 36-9.5l3.5-6a27.07 27.07 0 0 0-10.5-36.5Zm-10 17.5a7.18 7.18 0 0 1 2.5 9l-3.5 6c-1.5 3-5.5 4-8.5 2.5l-1-.5c-17-10-38.5 2.5-38.5 22a5.55 5.55 0 0 1-5.5 5.5h-8.5a5.78 5.78 0 0 1-6-6 26 26 0 0 0-39-22.5l-1.5 1a6.81 6.81 0 0 1-9.5-2.5l-3-5.5c-2-3-.5-7 2.5-9 17.5-10 17.5-36 0-46a7.18 7.18 0 0 1-2.5-9l3-6a6.71 6.71 0 0 1 9.5-2.5c18 10.5 40.5-2.5 40.5-23.5v-1a7.69 7.69 0 0 1 7.5-7.5h5a7.69 7.69 0 0 1 7.5 7.5V39c0 20 22 33 39.5 23 3-1.5 7-.5 8.5 2.5l3.5 6c2 3 .5 7-2.5 9-17.5 10-17.5 35.5 0 46Z" fill="#ffffff" class="fill-000000"></path></svg>