<svg viewBox="0 0 846.66 846.66" xml:space="preserve" xmlns="http://www.w3.org/2000/svg" shape-rendering="geometricPrecision" text-rendering="geometricPrecision" image-rendering="optimizeQuality" fill-rule="evenodd" clip-rule="evenodd"><path d="M116.59 97.6h592.69V49.48h-658v658H95.8V118.39c0-11.48 9.31-20.79 20.79-20.79zm349.79 541.38c21.94 0 39.72 17.78 39.72 39.72 0 21.94-17.78 39.72-39.72 39.72-21.94 0-39.72-17.78-39.72-39.72 0-21.94 17.78-39.72 39.72-39.72zm-88.17-312.1c0 27.34-41.57 27.34-41.57 0 0-71.66 58.09-129.74 129.74-129.74s129.74 58.08 129.74 129.74c0 63.64-46.26 117.99-108.95 128.08v129.16c0 27.35-41.58 27.35-41.58 0V435.83c0-11.48 9.31-20.79 20.79-20.79 48.69 0 88.16-39.47 88.16-88.16 0-48.7-39.47-88.17-88.16-88.17-48.7 0-88.17 39.47-88.17 88.17zM750.86 97.6h65.31c11.48 0 20.79 9.31 20.79 20.79v699.58c0 11.48-9.31 20.79-20.79 20.79H116.59c-11.48 0-20.79-9.31-20.79-20.79v-68.91H30.49c-11.48 0-20.79-9.31-20.79-20.79V28.69C9.7 17.21 19.01 7.9 30.49 7.9h699.58c11.48 0 20.79 9.31 20.79 20.79V97.6zm44.52 41.57h-658v658.01h658V139.17z" fill="#ffffff" fill-rule="nonzero" class="fill-000000"></path></svg>