<svg xmlns="http://www.w3.org/2000/svg" viewBox="0 0 24 24" fill="none"><path d="M11.967 13a1 1 0 0 0-.968.75l-.25.968-1.936-.499.249-.968a3 3 0 0 1 5.905.749c0 .931-.454 1.55-.93 2.009-.193.186-.413.368-.61.532l-.086.07a9.6 9.6 0 0 0-.667.596l-.707.707-1.414-1.414.707-.707c.284-.284.564-.52.802-.719l.092-.076c.204-.17.36-.299.494-.428.274-.265.32-.397.32-.57a1 1 0 0 0-1-1ZM10.967 18h2.01v2h-2.01v-2Z" fill="#ffffff" class="fill-000000"></path><path fill-rule="evenodd" clip-rule="evenodd" d="M3 1h11.414L21 7.586V23H3V1Zm2 2v18h14V9h-6V3H5Zm10 1.414L17.586 7H15V4.414Z" fill="#ffffff" class="fill-000000"></path></svg>