<svg viewBox="0 0 64 64" xml:space="preserve" xmlns="http://www.w3.org/2000/svg" enable-background="new 0 0 64 64"><path d="m63.343 40.409-1.606-2.394c-2.115-3.152-3.521-6.394-4.19-9.646a21.573 21.573 0 0 0-5.905-10.953c-2.883-2.872-6.364-4.808-10.144-5.725l6.813-8.489L35.024 0l-5.935 11.132c-6.265-.409-12.24 1.796-16.739 6.284C9.338 20.45 7.293 24.23 6.445 28.37c-.658 3.242-2.065 6.484-4.18 9.636L.65 40.409c-.3.449-.33 1.017-.08 1.496.26.479.748.778 1.297.778h4.14v6.364a3.653 3.653 0 0 0 3.65 3.651l3.132.01V64h38.424l.01-11.302h3.122a3.653 3.653 0 0 0 3.651-3.65v-6.365h4.14c.539 0 1.027-.289 1.287-.768.26-.479.23-1.057-.08-1.506zm-5.895.28c-.798 0-1.447.658-1.447 1.456v6.902c0 .908-.748 1.656-1.656 1.656h-3.122a2.005 2.005 0 0 0-2.005 2.005v9.297h-15.9c-.34-2.145-.978-4.14-1.905-5.935a19.778 19.778 0 0 0-6.255-7.132 19.687 19.687 0 0 1-8.498-16.2c0-7.361 4.05-14.075 10.164-17.356l-1.177 2.204 5.227.938-7.342 19.89 20.07-22.324-4.778-1.078 1.267-1.576c3.78.719 7.292 2.544 10.145 5.387 2.733 2.753 4.588 6.184 5.356 9.945.719 3.511 2.235 6.993 4.49 10.354l1.056 1.566h-3.69z" fill="#ffffff" class="fill-000000"></path></svg>